<svg xmlns="http://www.w3.org/2000/svg" viewBox="0 0 640 480" fill="none">
  <rect width="640" height="480" rx="48" fill="#FFF8EE"/>
  <ellipse cx="320" cy="402" rx="166" ry="28" fill="#E8D9CB"/>
  <circle cx="194" cy="110" r="18" fill="#F6DC6B"/>
  <circle cx="458" cy="132" r="12" fill="#F7A6C3"/>
  <circle cx="492" cy="104" r="8" fill="#E45745"/>
  <circle cx="152" cy="158" r="9" fill="#8FD6FF"/>
  <path d="M132 116L148 132" stroke="#F7A6C3" stroke-width="10" stroke-linecap="round"/>
  <path d="M148 116L132 132" stroke="#F7A6C3" stroke-width="10" stroke-linecap="round"/>
  <path d="M472 78L472 112" stroke="#F6DC6B" stroke-width="8" stroke-linecap="round"/>
  <path d="M456 96L488 96" stroke="#F6DC6B" stroke-width="8" stroke-linecap="round"/>
  <g transform="translate(138 70)">
    <ellipse cx="104" cy="84" rx="56" ry="66" fill="#FDE1C9"/>
    <path d="M76 126C82 170 126 170 132 126" fill="#F4F0F0"/>
    <path d="M58 58C66 6 142 6 150 58C128 64 84 66 58 58Z" fill="#B6382E"/>
    <path d="M74 30H134L148 56H60L74 30Z" fill="#E45745"/>
    <circle cx="74" cy="30" r="12" fill="#FFFDF6"/>
    <path d="M40 210C46 152 84 126 104 126C124 126 162 152 168 210V292H40V210Z" fill="#C63E33"/>
    <path d="M40 210C44 172 62 150 76 140L104 184L132 140C146 150 164 172 168 210V292H40V210Z" fill="#A52F28"/>
    <path d="M76 140L104 184L132 140" stroke="#FFFDF6" stroke-width="14" stroke-linecap="round" stroke-linejoin="round"/>
    <path d="M24 212C14 220 4 236 4 260C4 282 18 298 30 304L52 252L24 212Z" fill="#C63E33"/>
    <path d="M184 210C194 218 204 234 204 258C204 282 190 298 178 304L156 252L184 210Z" fill="#C63E33"/>
    <path d="M76 292H132L146 350H62L76 292Z" fill="#FFFDF6"/>
    <rect x="54" y="350" width="28" height="42" rx="14" fill="#744F3E"/>
    <rect x="126" y="350" width="28" height="42" rx="14" fill="#744F3E"/>
    <path d="M150 220C212 212 266 234 294 264" stroke="#F7D5BF" stroke-width="16" stroke-linecap="round"/>
    <path d="M32 248C68 248 96 238 118 220" stroke="#FFFDF6" stroke-width="16" stroke-linecap="round"/>
  </g>
  <g transform="translate(286 90)">
    <ellipse cx="110" cy="82" rx="52" ry="64" fill="#FDE1C9"/>
    <path d="M72 52C82 10 138 8 148 52C128 64 90 66 72 52Z" fill="#A3CFF7"/>
    <path d="M94 18L128 18L146 50H76L94 18Z" fill="#D8ECFF"/>
    <circle cx="111" cy="18" r="13" fill="#FFFDF6"/>
    <path d="M52 204C58 148 94 122 110 122C126 122 162 148 168 204V290H52V204Z" fill="#CFE6FF"/>
    <path d="M80 138L110 180L140 138" stroke="#FFFDF6" stroke-width="14" stroke-linecap="round" stroke-linejoin="round"/>
    <path d="M34 214C20 224 10 244 10 266C10 286 24 302 38 308L66 252L34 214Z" fill="#CFE6FF"/>
    <path d="M166 224C148 216 130 212 114 214" stroke="#B5D8FF" stroke-width="16" stroke-linecap="round"/>
    <path d="M112 214C76 216 48 236 26 266" stroke="#F7D5BF" stroke-width="16" stroke-linecap="round"/>
    <path d="M84 290H136L148 348H72L84 290Z" fill="#FFFDF6"/>
    <rect x="66" y="348" width="28" height="40" rx="14" fill="#6A8BAA"/>
    <rect x="126" y="348" width="28" height="40" rx="14" fill="#6A8BAA"/>
    <path d="M166 214C210 216 246 232 278 258" stroke="#D8ECFF" stroke-width="16" stroke-linecap="round"/>
  </g>
</svg>
